# xmcd CD database file
#
# Track frame offsets:
#	150
#	17221
#	31891
#	44238
#	59944
#	75736
#	86602
#	100800
#	112917
#	123792
#	135468
#	147804
#	157459
#	170221
#	185362
#	198049
#	216600
#	231442
#	243691
#	265338
#
# Disc length: 3681 seconds
#
# Revision: 0
# Processed by: cddbd v1.5.2PL0 Copyright (c) Steve Scherf et al.
# Submitted via: CDex 1.51
#
DISCID=310e5f14
DTITLE=Kenny Paul - Country and Irish
DYEAR=1900
DGENRE=Country
TTITLE0=Hold Me Back
TTITLE1=Say You Love Me
TTITLE2=Stop The World
TTITLE3=Daisy A Day
TTITLE4=Lets Grow Old Together
TTITLE5=Dear Hearts and Gentle People
TTITLE6=A Light In The Church
TTITLE7=I'll Never Take You Back
TTITLE8=No One Will Ever Know
TTITLE9=The Old Folks At Home
TTITLE10=I Love You Because
TTITLE11=Anytime
TTITLE12=The Last Time
TTITLE13=Roads of Kildare
TTITLE14=Till I Waltz Again With You
TTITLE15=Windows Up In Heaven
TTITLE16=Waltzing An Angel Tonight
TTITLE17=Walking On New Grass
TTITLE18=I'll Be Waiting For You
TTITLE19=the end
EXTD=
EXTT0=
EXTT1=
EXTT2=
EXTT3=
EXTT4=
EXTT5=
EXTT6=
EXTT7=
EXTT8=
EXTT9=
EXTT10=
EXTT11=
EXTT12=
EXTT13=
EXTT14=
EXTT15=
EXTT16=
EXTT17=
EXTT18=
EXTT19=
PLAYORDER=
